<?xml version="1.0" encoding="UTF-8" standalone="no"?>
<!DOCTYPE svg PUBLIC "-//W3C//DTD SVG 1.1//EN" "http://www.w3.org/Graphics/SVG/1.1/DTD/svg11.dtd">
<svg width="100%" height="100%" viewBox="0 0 733 202" version="1.1" xmlns="http://www.w3.org/2000/svg" xmlns:xlink="http://www.w3.org/1999/xlink" xml:space="preserve" xmlns:serif="http://www.serif.com/" style="fill-rule:evenodd;clip-rule:evenodd;stroke-linecap:round;stroke-linejoin:round;">
    <g transform="matrix(0.80239,0,0,0.80239,66.8124,22.8963)">
        <g transform="matrix(3.92109,0,0,3.92109,68.1319,136.318)">
            <path d="M20,22L18,22L18,20C18,18.354 16.646,17 15,17L9,17C7.354,17 6,18.354 6,20L6,22L4,22L4,20C4,17.257 6.257,15 9,15L15,15C17.743,15 20,17.257 20,20L20,22ZM12,13C8.708,13 6,10.292 6,7C6,3.708 8.708,1 12,1C15.292,1 18,3.708 18,7C18,10.292 15.292,13 12,13ZM12,11C14.194,11 16,9.194 16,7C16,4.806 14.194,3 12,3C9.806,3 8,4.806 8,7C8,9.194 9.806,11 12,11Z" style="fill:rgb(148,163,184);fill-rule:nonzero;"/>
        </g>
        <g transform="matrix(4.35467,0,0,4.35467,170.806,131.618)">
            <path d="M21,3C21.549,3 22,3.451 22,4L22,20.007C21.996,20.55 21.551,20.996 21.008,21L2.992,21C2.448,20.999 2,20.551 2,20.007L2,19L20,19L20,7.3L12,14.5L2,5.5L2,4C2,3.451 2.451,3 3,3L21,3ZM8,15L8,17L0,17L0,15L8,15ZM5,10L5,12L0,12L0,10L5,10ZM19.566,5L4.434,5L12,11.81L19.566,5Z" style="fill:rgb(148,163,184);fill-rule:nonzero;"/>
        </g>
        <g>
            <g transform="matrix(3.99073,0,0,3.99073,282.712,134.937)">
                <path d="M3,21C2.333,20.333 6.262,14.764 14.785,4.291C15.449,3.475 16.447,3.001 17.499,3.001C19.419,3.001 20.999,4.581 20.999,6.501C20.999,7.482 20.587,8.419 19.863,9.082C9.288,17.694 3.667,21.667 3,21ZM17.5,6.5L16.5,7.5" style="fill:none;fill-rule:nonzero;stroke:rgb(148,163,184);stroke-width:1.57px;"/>
            </g>
            <g transform="matrix(3.99073,0,0,3.99073,282.712,134.937)">
                <path d="M17,7C14.667,4.333 13.5,3 12,3C10.5,3 10,4 10,5C10,9 18.161,13.406 16,16C14.944,17.268 12.637,17.285 10.25,16.808M5.739,15.425C4.346,14.86 2,13.5 2,12M19.5,9.5L21,11" style="fill:none;fill-rule:nonzero;stroke:rgb(148,163,184);stroke-width:1.57px;"/>
            </g>
        </g>
        <g transform="matrix(4.01112,0,0,3.95841,377.707,134.911)">
            <g transform="matrix(0.0230671,0,0,0.0233743,2.20678,0.252543)">
                <path d="M573,421C549.9,421 532,438.9 532,461C532,483.1 549.9,501 573,501C594.1,501 612,483.1 612,461C612,438.9 594.1,421 573,421ZM293,421C269.9,421 252,438.9 252,461C252,483.1 269.9,501 293,501C314.1,501 332,483.1 332,461C332,438.9 314.1,421 293,421Z" style="fill:rgb(148,163,184);fill-rule:nonzero;"/>
            </g>
            <g transform="matrix(0.0230671,0,0,0.0233743,2.20678,0.252543)">
                <path d="M894,345C845.9,279 778.7,234.9 705,215L705,215.1C687.9,196.1 668.6,178.6 647,163C483.3,44 253.5,80.3 134,244C37.7,377 41.8,555.9 140,683L140.8,815.6C140.8,818.8 141.3,822 142.3,825C147.6,841.9 165.6,851.2 182.4,845.9L309,806C342.5,817.9 377.1,824.7 411.5,826.6L411,827C500.1,891.9 616.9,911.4 724,876L851.1,917.4C854.3,918.4 857.6,919 861,919C878.7,919 893,904.7 893,887L893,753C981.1,633.4 983.4,468.1 894,345ZM323,735L311,730L212,761L211,657L203,648C118.4,544.8 112.8,396.1 192,287C288.4,154.8 473.2,125.6 605,221C737.2,317.1 766.5,501.6 671,633C590.9,742.9 447.5,783.5 323,735ZM828,718L820,728L821,832L723,799L711,804C655,824.8 595.3,826.5 540,811L539.8,810.9C613.7,788.2 680.7,742.2 729,676C805.4,570.7 817.8,438.4 773.4,325.6L774,326C797,342.5 818.1,363.1 836,388C908.6,487.6 904.5,623.2 828,718Z" style="fill:rgb(148,163,184);fill-rule:nonzero;"/>
            </g>
            <g transform="matrix(0.0230671,0,0,0.0233743,2.20678,0.252543)">
                <path d="M433,421C409.9,421 392,438.9 392,461C392,483.1 409.9,501 433,501C454.1,501 472,483.1 472,461C472,438.9 454.1,421 433,421Z" style="fill:rgb(148,163,184);fill-rule:nonzero;"/>
            </g>
        </g>
        <g transform="matrix(3.92381,0,0,3.92381,481.159,135.528)">
            <path d="M12.781,2.375C12.4,1.9 11.6,1.9 11.219,2.375L3.219,12.375C3.078,12.552 3.001,12.772 3.001,12.999C3.001,13.547 3.452,13.999 4,14L8,14L8,21C8,21.549 8.451,22 9,22L15,22C15.549,22 16,21.549 16,21L16,14L20,14C20.548,13.999 20.999,13.547 20.999,12.999C20.999,12.772 20.922,12.552 20.781,12.375L12.781,2.375ZM17.919,12L14,12L14,20L10,20L10,12L6.081,12L12,4.601L17.919,12Z" style="fill:rgb(148,163,184);fill-rule:nonzero;"/>
        </g>
        <g transform="matrix(4.11136,0,0,4.11136,575.72,133.279)">
            <path d="M3,3L3,4.5M3,21L3,15M3,15L5.77,14.307C7.854,13.786 10.057,14.028 11.978,14.989L12.086,15.043C13.969,15.984 16.123,16.235 18.172,15.753L21.286,15.021C20.905,11.532 20.903,8.012 21.281,4.522L18.171,5.254C16.122,5.736 13.968,5.484 12.086,4.543L11.978,4.489C10.057,3.528 7.854,3.286 5.77,3.807L3,4.5M3,15L3,4.5" style="fill:none;fill-rule:nonzero;stroke:rgb(148,163,184);stroke-width:1.5px;"/>
        </g>
    </g>
    <g transform="matrix(5.99985,0,0,5.99985,-11.6997,-11.9997)">
        <path d="M13,23L13,13L23,13L23,23L13,23ZM14.5,21.5L21.5,21.5L21.5,20.7C21.083,20.183 20.575,19.771 19.975,19.462C19.375,19.153 18.717,18.999 18,19C17.283,19 16.625,19.154 16.025,19.463C15.425,19.772 14.917,20.184 14.5,20.7L14.5,21.5ZM18,18C18.417,18 18.771,17.854 19.063,17.562C19.355,17.27 19.501,16.916 19.5,16.5C19.5,16.083 19.354,15.729 19.062,15.437C18.77,15.145 18.416,14.999 18,15C17.583,15 17.229,15.146 16.937,15.438C16.645,15.73 16.499,16.084 16.5,16.5C16.5,16.917 16.646,17.271 16.938,17.563C17.23,17.855 17.584,18.001 18,18ZM9.25,22L8.85,18.8C8.633,18.717 8.429,18.617 8.237,18.5C8.045,18.383 7.858,18.258 7.675,18.125L4.7,19.375L1.95,14.625L4.525,12.675C4.508,12.558 4.5,12.446 4.5,12.337L4.5,11.663C4.5,11.554 4.508,11.442 4.525,11.325L1.95,9.375L4.7,4.625L7.675,5.875C7.858,5.742 8.05,5.617 8.25,5.5C8.45,5.383 8.65,5.283 8.85,5.2L9.25,2L14.75,2L15.15,5.2C15.367,5.283 15.571,5.383 15.763,5.5C15.955,5.617 16.142,5.742 16.325,5.875L19.3,4.625L22.05,9.375L19.925,11L15.4,11C15.167,10.283 14.75,9.687 14.15,9.212C13.55,8.737 12.85,8.499 12.05,8.5C11.083,8.5 10.258,8.842 9.575,9.525C8.892,10.208 8.55,11.033 8.55,12C8.55,12.8 8.775,13.5 9.225,14.1C9.675,14.7 10.267,15.117 11,15.35L11,22L9.25,22Z" style="fill:rgb(79,70,229);fill-rule:nonzero;"/>
    </g>
    <g transform="matrix(1,0,0,1,-155.748,-4.05815)">
        <g transform="matrix(124,0,0,124,891.253,114.726)">
        </g>
        <text x="294.321px" y="114.726px" style="font-family:'SegoeUI-Bold', 'Segoe UI', sans-serif;font-weight:700;font-size:124px;fill:rgb(79,70,229);">Cr<tspan x="420.561px 487.647px 554.37px 602.141px 677.946px " y="114.726px 114.726px 114.726px 114.726px 114.726px ">eator</tspan>Kit</text>
    </g>
</svg>
