<svg width="1280" height="720" xmlns="http://www.w3.org/2000/svg" xmlns:xlink="http://www.w3.org/1999/xlink" overflow="hidden"><defs><clipPath id="clip0"><rect x="0" y="0" width="1280" height="720"/></clipPath><clipPath id="clip1"><rect x="128" y="229" width="544" height="279"/></clipPath><clipPath id="clip2"><rect x="128" y="229" width="544" height="279"/></clipPath><clipPath id="clip3"><rect x="128" y="229" width="544" height="279"/></clipPath><clipPath id="clip4"><rect x="293" y="356" width="8" height="8"/></clipPath><clipPath id="clip5"><rect x="293" y="356" width="8" height="8"/></clipPath><clipPath id="clip6"><rect x="293" y="356" width="8" height="8"/></clipPath><clipPath id="clip7"><rect x="119" y="250" width="8" height="8"/></clipPath><clipPath id="clip8"><rect x="119" y="250" width="8" height="8"/></clipPath><clipPath id="clip9"><rect x="119" y="250" width="8" height="8"/></clipPath><clipPath id="clip10"><rect x="231" y="288" width="132" height="132"/></clipPath><clipPath id="clip11"><rect x="231" y="288" width="132" height="132"/></clipPath><clipPath id="clip12"><rect x="231" y="288" width="132" height="132"/></clipPath><clipPath id="clip13"><rect x="57" y="195" width="133" height="132"/></clipPath><clipPath id="clip14"><rect x="57" y="195" width="133" height="132"/></clipPath><clipPath id="clip15"><rect x="57" y="195" width="133" height="132"/></clipPath><clipPath id="clip16"><rect x="416" y="387" width="132" height="132"/></clipPath><clipPath id="clip17"><rect x="416" y="387" width="132" height="132"/></clipPath><clipPath id="clip18"><rect x="416" y="387" width="132" height="132"/></clipPath><clipPath id="clip19"><rect x="605" y="457" width="132" height="132"/></clipPath><clipPath id="clip20"><rect x="605" y="457" width="132" height="132"/></clipPath><clipPath id="clip21"><rect x="605" y="457" width="132" height="132"/></clipPath></defs><g clip-path="url(#clip0)"><rect x="0" y="0" width="1280" height="720" fill="#FFFFFF"/><g clip-path="url(#clip1)"><g clip-path="url(#clip2)"><g clip-path="url(#clip3)"><path d="M110.477 43.38 110.477 35.8787 110.477 35.8787 552.406 35.8787 552.406 312.396" stroke="#333333" stroke-width="2.12804" stroke-dasharray="8.51214 8.51214" fill="none" transform="matrix(1.22507 0 0 1 -6.03824 194.363)"/></g></g></g><path d="M0 0 313.341 2.44556" stroke="#1F2937" stroke-width="2" stroke-linejoin="round" stroke-miterlimit="10" stroke-dasharray="8 6" fill="none" fill-rule="evenodd" transform="matrix(1 0 0 -1 359 327.446)"/><text fill="#333333" font-family="Segoe UI,Segoe UI_MSFontService,sans-serif" font-weight="700" font-size="16" transform="translate(403.638 349)">2222%</text><rect x="231" y="356" width="132" height="236" fill="#059669"/><rect x="57" y="265" width="132" height="327" fill="#059669"/><text fill="#333333" font-family="Segoe UI,Segoe UI_MSFontService,sans-serif" font-weight="400" font-size="60" transform="translate(278.283 152)">Litestream vs AWS vs Azure<tspan fill="#2683C6" font-weight="700" font-size="60" x="166.807" y="-77">Hosting Costs</tspan></text><rect x="896" y="232" width="335" height="429" fill="#FFFFFF"/><text fill="#2683C6" font-family="Segoe UI,Segoe UI_MSFontService,sans-serif" font-weight="700" font-size="112" transform="translate(849.386 354)">3912%<tspan fill="#333333" font-weight="400" font-size="37" x="21.4736" y="49">More Cost Effective</tspan><tspan fill="#000000" fill-opacity="0.6" font-weight="400" font-size="29" x="11.849" y="117">For running recommended </tspan><tspan fill="#000000" fill-opacity="0.6" font-weight="400" font-size="29" x="35.3423" y="152">WebApp and Managed </tspan><tspan fill="#000000" fill-opacity="0.6" font-weight="400" font-size="29" x="28.989" y="187">RDBMS configuration </tspan><tspan fill="#000000" fill-opacity="0.6" font-weight="400" font-size="29" x="315.656" y="187">vs </tspan><tspan fill="#000000" fill-opacity="0.6" font-weight="400" font-size="29" x="17.3224" y="222">comparable </tspan><tspan fill="#000000" fill-opacity="0.6" font-weight="400" font-size="29" x="177.936" y="222">Litestream</tspan><tspan fill="#000000" fill-opacity="0.6" font-weight="400" font-size="29" x="319.989" y="222">on </tspan><tspan fill="#000000" fill-opacity="0.6" font-weight="400" font-size="29" x="3.98901" y="257">4vCPU / 8GB RAM instances</tspan></text><g clip-path="url(#clip4)"><g clip-path="url(#clip5)"><g clip-path="url(#clip6)"><path d="M297 356C299.209 356 301 357.791 301 360 301 362.209 299.209 364 297 364 294.791 364 293 362.209 293 360 293 357.791 294.791 356 297 356" fill="#333333"/></g></g></g><g clip-path="url(#clip7)"><g clip-path="url(#clip8)"><g clip-path="url(#clip9)"><path d="M123 250C125.209 250 127 251.791 127 254 127 256.209 125.209 258 123 258 120.791 258 119 256.209 119 254 119 251.791 120.791 250 123 250" fill="#333333"/></g></g></g><rect x="212" y="235" width="60" height="31" fill="#FFFFFF"/><text fill="#333333" font-family="Segoe UI,Segoe UI_MSFontService,sans-serif" font-weight="700" font-size="16" transform="translate(220.405 250)">3912%</text><g clip-path="url(#clip10)"><g clip-path="url(#clip11)"><g clip-path="url(#clip12)"><path d="M297 289.5C332.622 289.5 361.5 318.378 361.5 354 361.5 389.622 332.622 418.5 297 418.5 261.378 418.5 232.5 389.622 232.5 354 232.5 318.378 261.378 289.5 297 289.5" stroke="#059669" stroke-width="3.00005" fill="#FFFFFF"/></g></g></g><g clip-path="url(#clip13)"><g clip-path="url(#clip14)"><g clip-path="url(#clip15)"><path d="M64.5 0C100.122-2.84217e-14 129 28.8776 129 64.5 129 100.122 100.122 129 64.5 129 28.8776 129 0 100.122 0 64.5-1.42109e-14 28.8776 28.8776-1.42109e-14 64.5-2.84217e-14" stroke="#059669" stroke-width="3" fill="#FFFFFF" transform="matrix(1.00758 0 0 1 58.5114 196.5)"/></g></g></g><rect x="416" y="457" width="132" height="134" fill="#2563EB"/><g clip-path="url(#clip16)"><g clip-path="url(#clip17)"><g clip-path="url(#clip18)"><path d="M482 388.5C517.622 388.5 546.5 417.378 546.5 453 546.5 488.622 517.622 517.5 482 517.5 446.378 517.5 417.5 488.622 417.5 453 417.5 417.378 446.378 388.5 482 388.5" stroke="#2563EB" stroke-width="3.00005" fill="#FFFFFF"/></g></g></g><text fill="#000000" fill-opacity="0.6" font-family="Segoe UI,Segoe UI_MSFontService,sans-serif" font-weight="400" font-size="52" transform="translate(451.098 471)">48<tspan font-size="27" x="-366.665" y="148">Azure</tspan><tspan font-size="27" x="-186.553" y="148">AWS</tspan><tspan font-size="52" x="-195.614" y="-95">280</tspan><tspan font-size="52" x="-369.669" y="-192">493</tspan></text><rect x="605" y="528" width="132" height="64" fill="#2563EB"/><g clip-path="url(#clip19)"><g clip-path="url(#clip20)"><g clip-path="url(#clip21)"><path d="M671 458.5C706.622 458.5 735.5 487.378 735.5 523 735.5 558.622 706.622 587.5 671 587.5 635.378 587.5 606.5 558.622 606.5 523 606.5 487.378 635.378 458.5 671 458.5" stroke="#2563EB" stroke-width="3.00005" fill="#FFFFFF"/></g></g></g><text fill="#000000" fill-opacity="0.6" font-family="Segoe UI,Segoe UI_MSFontService,sans-serif" font-weight="400" font-size="52" transform="translate(620.006 545)">12.6<tspan fill="#333333" fill-opacity="1" font-weight="700" font-size="16" x="-54.6041" y="-105">380%</tspan><tspan font-size="27" x="-218.637" y="74">DigitalOcean</tspan><tspan font-size="27" x="-36.5976" y="74">Hetzner</tspan><tspan font-size="27" x="63.2358" y="74">Cloud</tspan></text><path d="M0 0 129.822 2.03129" stroke="#1F2937" stroke-width="2" stroke-linejoin="round" stroke-miterlimit="10" stroke-dasharray="8 6" fill="none" fill-rule="evenodd" transform="matrix(1 0 0 -1 540 420.031)"/><text fill="#059669" font-family="Segoe UI,Segoe UI_MSFontService,sans-serif" font-weight="700" font-size="32" transform="translate(78.4755 663)">Managed RDBMS<tspan fill="#2563EB" font-size="32" x="419.779" y="0">Litestream</tspan></text></g></svg>